<svg xmlns="http://www.w3.org/2000/svg" xmlns:xlink="http://www.w3.org/1999/xlink" width="600" zoomAndPan="magnify" viewBox="0 0 375 374.999991" height="600" preserveAspectRatio="xMidYMid meet" version="1.0"><defs><g/></defs><g fill="#224c84" fill-opacity="1"><g transform="translate(44.025974, 180.145269)"><g><path d="M 43.609375 -10.515625 L 18.65625 -10.515625 L 14.5 0 L -0.40625 0 L 24.203125 -57.046875 L 39.125 -57.046875 L 63.15625 0 L 47.671875 0 Z M 39.359375 -21.515625 L 31.21875 -42.625 L 22.90625 -21.515625 Z M 39.359375 -21.515625 "/></g></g></g><g fill="#224c84" fill-opacity="1"><g transform="translate(106.775455, 180.145269)"><g><path d="M 20.21875 0 L 5.703125 0 L 5.703125 -57.046875 L 20.21875 -57.046875 Z M 20.21875 0 "/></g></g></g><g fill="#224c84" fill-opacity="1"><g transform="translate(132.690169, 180.145269)"><g><path d="M 4.96875 -11.078125 C 6.21875 -12.328125 7.847656 -12.953125 9.859375 -12.953125 C 11.867188 -12.953125 13.507812 -12.328125 14.78125 -11.078125 C 16.0625 -9.828125 16.703125 -8.195312 16.703125 -6.1875 C 16.703125 -4.175781 16.0625 -2.53125 14.78125 -1.25 C 13.507812 0.0195312 11.867188 0.65625 9.859375 0.65625 C 7.847656 0.65625 6.21875 0.0195312 4.96875 -1.25 C 3.71875 -2.53125 3.09375 -4.175781 3.09375 -6.1875 C 3.09375 -8.195312 3.71875 -9.828125 4.96875 -11.078125 Z M 4.96875 -11.078125 "/></g></g></g><g fill="#224c84" fill-opacity="1"><g transform="translate(152.49292, 180.145269)"><g><path d="M 58.359375 0 L 43.84375 0 L 43.84375 -22.171875 L 20.21875 -22.171875 L 20.21875 0 L 5.703125 0 L 5.703125 -57.046875 L 20.21875 -57.046875 L 20.21875 -33.578125 L 43.84375 -33.578125 L 43.84375 -57.046875 L 58.359375 -57.046875 Z M 58.359375 0 "/></g></g></g><g fill="#224c84" fill-opacity="1"><g transform="translate(216.546287, 180.145269)"><g><path d="M 35.125 -18.421875 L 35.125 0 L 20.703125 0 L 20.703125 -18.015625 L -0.40625 -57.046875 L 14.09375 -57.046875 L 27.875 -32.1875 L 41.328125 -57.046875 L 55.828125 -57.046875 Z M 35.125 -18.421875 "/></g></g></g><g fill="#224c84" fill-opacity="1"><g transform="translate(271.961427, 180.145269)"><g><path d="M 40.09375 0 L 31.625 -16.0625 L 20.21875 -16.0625 L 20.21875 0 L 5.703125 0 L 5.703125 -57.046875 L 31.21875 -57.046875 C 38.769531 -57.046875 44.609375 -55.320312 48.734375 -51.875 C 52.867188 -48.425781 54.9375 -43.519531 54.9375 -37.15625 C 54.9375 -28.363281 51.484375 -22.253906 44.578125 -18.828125 L 56.5625 0 Z M 20.21875 -27.46875 L 31.21875 -27.46875 C 34.363281 -27.46875 36.804688 -28.253906 38.546875 -29.828125 C 40.285156 -31.398438 41.15625 -33.679688 41.15625 -36.671875 C 41.15625 -39.609375 40.285156 -41.835938 38.546875 -43.359375 C 36.804688 -44.878906 34.363281 -45.640625 31.21875 -45.640625 L 20.21875 -45.640625 Z M 20.21875 -27.46875 "/></g></g></g><g fill="#224c84" fill-opacity="1"><g transform="translate(44.078879, 216.754937)"><g><path d="M 22.109375 0 L 18.375 0 L 18.375 -9.171875 L 6.640625 -9.171875 L 6.640625 0 L 2.90625 0 L 2.90625 -22.140625 L 6.640625 -22.140625 L 6.640625 -12.53125 L 18.375 -12.53125 L 18.375 -22.140625 L 22.109375 -22.140625 Z M 22.109375 0 "/></g></g></g><g fill="#224c84" fill-opacity="1"><g transform="translate(70.005061, 216.754937)"><g><path d="M 6.640625 0 L 2.90625 0 L 2.90625 -22.140625 L 6.640625 -22.140625 Z M 6.640625 0 "/></g></g></g><g fill="#224c84" fill-opacity="1"><g transform="translate(80.470459, 216.754937)"><g><path d="M 16.953125 0 L 12.90625 -6.703125 C 12.695312 -6.679688 12.359375 -6.671875 11.890625 -6.671875 L 6.640625 -6.671875 L 6.640625 0 L 2.90625 0 L 2.90625 -22.140625 L 11.890625 -22.140625 C 14.710938 -22.140625 16.90625 -21.476562 18.46875 -20.15625 C 20.03125 -18.84375 20.8125 -16.984375 20.8125 -14.578125 C 20.8125 -12.804688 20.414062 -11.304688 19.625 -10.078125 C 18.832031 -8.859375 17.695312 -7.96875 16.21875 -7.40625 L 21.1875 0 Z M 6.640625 -10.03125 L 11.890625 -10.03125 C 15.472656 -10.03125 17.265625 -11.515625 17.265625 -14.484375 C 17.265625 -17.347656 15.472656 -18.78125 11.890625 -18.78125 L 6.640625 -18.78125 Z M 6.640625 -10.03125 "/></g></g></g><g fill="#224c84" fill-opacity="1"><g transform="translate(104.246674, 216.754937)"><g><path d="M 18.71875 -18.78125 L 6.640625 -18.78125 L 6.640625 -12.8125 L 17.453125 -12.8125 L 17.453125 -9.453125 L 6.640625 -9.453125 L 6.640625 -3.359375 L 19.09375 -3.359375 L 19.09375 0 L 2.90625 0 L 2.90625 -22.140625 L 18.71875 -22.140625 Z M 18.71875 -18.78125 "/></g></g></g><g fill="#224c84" fill-opacity="1"><g transform="translate(125.899186, 216.754937)"><g/></g></g><g fill="#224c84" fill-opacity="1"><g transform="translate(134.973427, 216.754937)"><g/></g></g><g fill="#224c84" fill-opacity="1"><g transform="translate(144.047669, 216.754937)"><g/></g></g><g fill="#224c84" fill-opacity="1"><g transform="translate(153.12184, 216.754937)"><g><path d="M 18.03125 -18.78125 L 11 -18.78125 L 11 0 L 7.28125 0 L 7.28125 -18.78125 L 0.28125 -18.78125 L 0.28125 -22.140625 L 18.03125 -22.140625 Z M 18.03125 -18.78125 "/></g></g></g><g fill="#224c84" fill-opacity="1"><g transform="translate(172.345182, 216.754937)"><g><path d="M 22.109375 0 L 18.375 0 L 18.375 -9.171875 L 6.640625 -9.171875 L 6.640625 0 L 2.90625 0 L 2.90625 -22.140625 L 6.640625 -22.140625 L 6.640625 -12.53125 L 18.375 -12.53125 L 18.375 -22.140625 L 22.109375 -22.140625 Z M 22.109375 0 "/></g></g></g><g fill="#224c84" fill-opacity="1"><g transform="translate(198.271364, 216.754937)"><g><path d="M 18.71875 -18.78125 L 6.640625 -18.78125 L 6.640625 -12.8125 L 17.453125 -12.8125 L 17.453125 -9.453125 L 6.640625 -9.453125 L 6.640625 -3.359375 L 19.09375 -3.359375 L 19.09375 0 L 2.90625 0 L 2.90625 -22.140625 L 18.71875 -22.140625 Z M 18.71875 -18.78125 "/></g></g></g><g fill="#224c84" fill-opacity="1"><g transform="translate(219.918711, 216.754937)"><g/></g></g><g fill="#224c84" fill-opacity="1"><g transform="translate(228.992952, 216.754937)"><g/></g></g><g fill="#224c84" fill-opacity="1"><g transform="translate(238.067194, 216.754937)"><g/></g></g><g fill="#224c84" fill-opacity="1"><g transform="translate(247.141369, 216.754937)"><g><path d="M 2.90625 -22.140625 L 12.53125 -22.140625 C 14.820312 -22.140625 16.628906 -21.648438 17.953125 -20.671875 C 19.285156 -19.691406 19.953125 -18.335938 19.953125 -16.609375 C 19.953125 -15.359375 19.601562 -14.296875 18.90625 -13.421875 C 18.21875 -12.546875 17.269531 -11.960938 16.0625 -11.671875 C 17.539062 -11.421875 18.703125 -10.796875 19.546875 -9.796875 C 20.390625 -8.804688 20.8125 -7.566406 20.8125 -6.078125 C 20.8125 -4.171875 20.09375 -2.679688 18.65625 -1.609375 C 17.226562 -0.535156 15.257812 0 12.75 0 L 2.90625 0 Z M 6.640625 -18.8125 L 6.640625 -12.96875 L 12.328125 -12.96875 C 13.515625 -12.96875 14.441406 -13.226562 15.109375 -13.75 C 15.785156 -14.28125 16.125 -15.007812 16.125 -15.9375 C 16.125 -16.863281 15.789062 -17.570312 15.125 -18.0625 C 14.46875 -18.5625 13.535156 -18.8125 12.328125 -18.8125 Z M 6.640625 -9.671875 L 6.640625 -3.328125 L 12.328125 -3.328125 C 13.804688 -3.328125 14.953125 -3.601562 15.765625 -4.15625 C 16.578125 -4.71875 16.984375 -5.515625 16.984375 -6.546875 C 16.984375 -7.515625 16.570312 -8.273438 15.75 -8.828125 C 14.925781 -9.390625 13.785156 -9.671875 12.328125 -9.671875 Z M 6.640625 -9.671875 "/></g></g></g><g fill="#224c84" fill-opacity="1"><g transform="translate(270.3801, 216.754937)"><g><path d="M 18.71875 -18.78125 L 6.640625 -18.78125 L 6.640625 -12.8125 L 17.453125 -12.8125 L 17.453125 -9.453125 L 6.640625 -9.453125 L 6.640625 -3.359375 L 19.09375 -3.359375 L 19.09375 0 L 2.90625 0 L 2.90625 -22.140625 L 18.71875 -22.140625 Z M 18.71875 -18.78125 "/></g></g></g><g fill="#224c84" fill-opacity="1"><g transform="translate(292.037966, 216.754937)"><g><path d="M 10.1875 -22.296875 C 13.050781 -22.296875 15.632812 -21.535156 17.9375 -20.015625 L 16.375 -16.734375 C 14.125 -18.097656 11.96875 -18.78125 9.90625 -18.78125 C 8.78125 -18.78125 7.894531 -18.578125 7.25 -18.171875 C 6.613281 -17.773438 6.296875 -17.207031 6.296875 -16.46875 C 6.296875 -15.738281 6.585938 -15.113281 7.171875 -14.59375 C 7.765625 -14.070312 8.503906 -13.691406 9.390625 -13.453125 C 10.273438 -13.210938 11.234375 -12.90625 12.265625 -12.53125 C 13.296875 -12.164062 14.253906 -11.773438 15.140625 -11.359375 C 16.035156 -10.953125 16.769531 -10.3125 17.34375 -9.4375 C 17.925781 -8.5625 18.21875 -7.503906 18.21875 -6.265625 C 18.21875 -4.328125 17.441406 -2.773438 15.890625 -1.609375 C 14.335938 -0.453125 12.328125 0.125 9.859375 0.125 C 8.179688 0.125 6.550781 -0.1875 4.96875 -0.8125 C 3.382812 -1.445312 2.003906 -2.304688 0.828125 -3.390625 L 2.4375 -6.609375 C 3.550781 -5.578125 4.773438 -4.78125 6.109375 -4.21875 C 7.453125 -3.664062 8.726562 -3.390625 9.9375 -3.390625 C 11.238281 -3.390625 12.253906 -3.625 12.984375 -4.09375 C 13.710938 -4.570312 14.078125 -5.234375 14.078125 -6.078125 C 14.078125 -6.828125 13.78125 -7.460938 13.1875 -7.984375 C 12.59375 -8.503906 11.851562 -8.882812 10.96875 -9.125 C 10.082031 -9.363281 9.125 -9.65625 8.09375 -10 C 7.0625 -10.351562 6.101562 -10.722656 5.21875 -11.109375 C 4.332031 -11.503906 3.59375 -12.132812 3 -13 C 2.414062 -13.863281 2.125 -14.90625 2.125 -16.125 C 2.125 -18 2.859375 -19.492188 4.328125 -20.609375 C 5.804688 -21.734375 7.757812 -22.296875 10.1875 -22.296875 Z M 10.1875 -22.296875 "/></g></g></g><g fill="#224c84" fill-opacity="1"><g transform="translate(312.620853, 216.754937)"><g><path d="M 18.03125 -18.78125 L 11 -18.78125 L 11 0 L 7.28125 0 L 7.28125 -18.78125 L 0.28125 -18.78125 L 0.28125 -22.140625 L 18.03125 -22.140625 Z M 18.03125 -18.78125 "/></g></g></g><path stroke-linecap="butt" transform="matrix(0.750855, 0, 0, 0.75, 43.659354, 230.447344)" fill="none" stroke-linejoin="miter" d="M 0.00106787 2.0025 L 383.574003 2.0025 " stroke="#224c84" stroke-width="4" stroke-opacity="1" stroke-miterlimit="4"/></svg>